<?xml version="1.0" standalone="no"?>
<!DOCTYPE svg PUBLIC "-//W3C//DTD SVG 20010904//EN"
 "http://www.w3.org/TR/2001/REC-SVG-20010904/DTD/svg10.dtd">
<svg version="1.0" xmlns="http://www.w3.org/2000/svg"
 width="834.000000pt" height="834.000000pt" viewBox="0 0 834.000000 834.000000"
 preserveAspectRatio="xMidYMid meet">
<metadata>
Created by potrace 1.14, written by Peter Selinger 2001-2017
</metadata>
<g transform="translate(0.000000,834.000000) scale(0.100000,-0.100000)"
fill="#000000" stroke="none">
<path d="M3998 8334 c-2 -1 -42 -5 -89 -8 -47 -4 -96 -8 -110 -10 -13 -3 -45
-7 -70 -10 -224 -31 -497 -99 -719 -179 -195 -71 -443 -184 -548 -251 -23 -14
-44 -26 -46 -26 -8 0 -134 -80 -221 -139 -288 -197 -576 -468 -806 -756 -119
-150 -286 -391 -359 -520 -13 -22 -38 -67 -57 -100 -45 -80 -184 -364 -198
-405 -6 -17 -20 -51 -36 -88 -31 -68 -135 -388 -163 -499 -22 -86 -36 -149
-62 -268 -7 -34 -23 -128 -29 -170 -4 -22 -8 -51 -11 -65 -2 -14 -6 -47 -9
-75 -3 -27 -8 -66 -10 -85 -5 -39 -16 -171 -21 -240 -4 -66 -4 -488 1 -535 2
-22 6 -81 10 -132 3 -50 7 -99 9 -110 2 -10 7 -45 10 -78 4 -33 9 -71 11 -85
2 -14 9 -54 14 -90 6 -36 13 -74 15 -85 37 -183 72 -331 103 -430 191 -632
438 -1101 817 -1555 86 -104 385 -405 482 -486 420 -352 855 -585 1348 -724
42 -12 85 -23 94 -25 9 -2 49 -10 87 -19 111 -23 187 -36 365 -61 175 -24 620
-24 760 -1 14 3 48 7 75 10 50 6 60 7 165 27 30 6 66 12 80 15 105 19 422 113
505 149 17 7 66 27 109 45 112 45 291 132 392 190 47 28 87 50 88 50 7 0 225
147 294 198 470 347 904 875 1191 1449 205 409 363 912 415 1318 3 22 10 76
16 121 36 274 43 706 16 989 -10 103 -19 182 -21 196 -2 9 -6 40 -10 69 -4 29
-9 62 -11 74 -2 12 -9 48 -14 81 -115 658 -399 1306 -815 1860 -255 339 -580
646 -921 871 -62 40 -128 82 -146 93 -18 10 -62 35 -98 56 -91 52 -293 148
-419 200 -98 40 -324 118 -375 130 -11 2 -57 14 -101 25 -121 31 -273 59 -400
74 -27 4 -70 9 -95 12 -45 6 -477 13 -482 8z"/>
</g>
</svg>
